<svg width="240" height="64" viewBox="0 0 240 64" fill="none" xmlns="http://www.w3.org/2000/svg">
  <rect width="240" height="64" rx="20" fill="#FFF8EE"/>
  <path d="M26 18H36L47 31L58 18H68V46H58V31.5L47 43L36 31.5V46H26V18Z" fill="#C8561A"/>
  <path d="M84 18H100C111.046 18 120 24.268 120 32C120 39.732 111.046 46 100 46H84V18ZM94 27V37H99.5C104.747 37 109 34.7614 109 32C109 29.2386 104.747 27 99.5 27H94Z" fill="#0F172A"/>
  <path d="M130 18H165V27H140V29H161V36.5H140V46H130V18Z" fill="#0F172A"/>
  <path d="M173 18H184.5L194.5 31L204.5 18H216L199.5 38.5V46H189.5V38.5L173 18Z" fill="#0F172A"/>
</svg>
